<svg width="1440" height="46" viewBox="0 0 1440 46" fill="none" xmlns="http://www.w3.org/2000/svg">
<rect width="1440" height="46" fill="white" fill-opacity="0.8"/>
<mask id="path-1-outside-1_2_70" maskUnits="userSpaceOnUse" x="691" y="15" width="76" height="16" fill="black">
<rect fill="white" x="691" y="15" width="76" height="16"/>
<path d="M697.14 30.24C696.153 30.24 695.287 30.06 694.54 29.7C693.807 29.34 693.227 28.8267 692.8 28.16C692.387 27.4933 692.173 26.7 692.16 25.78H694.4C694.413 26.4867 694.653 27.0933 695.12 27.6C695.6 28.0933 696.267 28.34 697.12 28.34C697.907 28.34 698.52 28.16 698.96 27.8C699.4 27.4267 699.62 26.9467 699.62 26.36C699.62 25.8667 699.487 25.46 699.22 25.14C698.967 24.8067 698.567 24.5133 698.02 24.26C697.473 23.9933 696.767 23.72 695.9 23.44C694.74 23.0667 693.887 22.5533 693.34 21.9C692.793 21.2333 692.52 20.42 692.52 19.46C692.52 18.3533 692.92 17.46 693.72 16.78C694.52 16.1 695.62 15.76 697.02 15.76C698.38 15.76 699.473 16.1133 700.3 16.82C701.127 17.5133 701.553 18.48 701.58 19.72H699.32C699.32 19.3867 699.227 19.0667 699.04 18.76C698.853 18.44 698.587 18.18 698.24 17.98C697.893 17.7667 697.467 17.66 696.96 17.66C696.333 17.6467 695.807 17.8 695.38 18.12C694.953 18.4267 694.74 18.8467 694.74 19.38C694.74 20.0333 695 20.5467 695.52 20.92C696.04 21.28 696.887 21.6533 698.06 22.04C698.793 22.28 699.44 22.5733 700 22.92C700.573 23.2533 701.02 23.6867 701.34 24.22C701.673 24.74 701.84 25.4067 701.84 26.22C701.84 26.9667 701.653 27.6467 701.28 28.26C700.907 28.86 700.367 29.34 699.66 29.7C698.967 30.06 698.127 30.24 697.14 30.24ZM708.412 30V16H713.152C714.219 16 715.099 16.1867 715.792 16.56C716.486 16.92 716.999 17.42 717.332 18.06C717.666 18.7 717.832 19.4333 717.832 20.26C717.832 21.0867 717.666 21.82 717.332 22.46C716.999 23.1 716.486 23.6067 715.792 23.98C715.099 24.34 714.219 24.52 713.152 24.52H710.532V30H708.412ZM710.532 22.62H713.052C713.959 22.62 714.619 22.4067 715.032 21.98C715.459 21.5533 715.672 20.98 715.672 20.26C715.672 19.5533 715.459 18.9867 715.032 18.56C714.619 18.12 713.959 17.9 713.052 17.9H710.532V22.62ZM728.984 30.24C727.851 30.24 726.871 29.9467 726.044 29.36C725.218 28.7733 724.584 27.94 724.144 26.86C723.704 25.78 723.484 24.4933 723.484 23C723.484 21.5067 723.704 20.22 724.144 19.14C724.584 18.06 725.218 17.2267 726.044 16.64C726.871 16.0533 727.851 15.76 728.984 15.76C730.131 15.76 731.111 16.0533 731.924 16.64C732.751 17.2267 733.384 18.06 733.824 19.14C734.264 20.22 734.484 21.5067 734.484 23C734.484 24.4933 734.264 25.78 733.824 26.86C733.384 27.94 732.751 28.7733 731.924 29.36C731.111 29.9467 730.131 30.24 728.984 30.24ZM728.984 28.24C729.984 28.24 730.791 27.7933 731.404 26.9C732.018 25.9933 732.324 24.6933 732.324 23C732.324 21.3067 732.018 20.0133 731.404 19.12C730.791 18.2133 729.984 17.76 728.984 17.76C727.971 17.76 727.158 18.2133 726.544 19.12C725.944 20.0133 725.644 21.3067 725.644 23C725.644 24.6933 725.944 25.9933 726.544 26.9C727.158 27.7933 727.971 28.24 728.984 28.24ZM743.917 30V17.9H740.157V16H749.797V17.9H746.037V30H743.917ZM761.109 30.24C760.122 30.24 759.255 30.06 758.509 29.7C757.775 29.34 757.195 28.8267 756.769 28.16C756.355 27.4933 756.142 26.7 756.129 25.78H758.369C758.382 26.4867 758.622 27.0933 759.089 27.6C759.569 28.0933 760.235 28.34 761.089 28.34C761.875 28.34 762.489 28.16 762.929 27.8C763.369 27.4267 763.589 26.9467 763.589 26.36C763.589 25.8667 763.455 25.46 763.189 25.14C762.935 24.8067 762.535 24.5133 761.989 24.26C761.442 23.9933 760.735 23.72 759.869 23.44C758.709 23.0667 757.855 22.5533 757.309 21.9C756.762 21.2333 756.489 20.42 756.489 19.46C756.489 18.3533 756.889 17.46 757.689 16.78C758.489 16.1 759.589 15.76 760.989 15.76C762.349 15.76 763.442 16.1133 764.269 16.82C765.095 17.5133 765.522 18.48 765.549 19.72H763.289C763.289 19.3867 763.195 19.0667 763.009 18.76C762.822 18.44 762.555 18.18 762.209 17.98C761.862 17.7667 761.435 17.66 760.929 17.66C760.302 17.6467 759.775 17.8 759.349 18.12C758.922 18.4267 758.709 18.8467 758.709 19.38C758.709 20.0333 758.969 20.5467 759.489 20.92C760.009 21.28 760.855 21.6533 762.029 22.04C762.762 22.28 763.409 22.5733 763.969 22.92C764.542 23.2533 764.989 23.6867 765.309 24.22C765.642 24.74 765.809 25.4067 765.809 26.22C765.809 26.9667 765.622 27.6467 765.249 28.26C764.875 28.86 764.335 29.34 763.629 29.7C762.935 30.06 762.095 30.24 761.109 30.24Z"/>
</mask>
<path d="M697.14 30.24C696.153 30.24 695.287 30.06 694.54 29.7C693.807 29.34 693.227 28.8267 692.8 28.16C692.387 27.4933 692.173 26.7 692.16 25.78H694.4C694.413 26.4867 694.653 27.0933 695.12 27.6C695.6 28.0933 696.267 28.34 697.12 28.34C697.907 28.34 698.52 28.16 698.96 27.8C699.4 27.4267 699.62 26.9467 699.62 26.36C699.62 25.8667 699.487 25.46 699.22 25.14C698.967 24.8067 698.567 24.5133 698.02 24.26C697.473 23.9933 696.767 23.72 695.9 23.44C694.74 23.0667 693.887 22.5533 693.34 21.9C692.793 21.2333 692.52 20.42 692.52 19.46C692.52 18.3533 692.92 17.46 693.72 16.78C694.52 16.1 695.62 15.76 697.02 15.76C698.38 15.76 699.473 16.1133 700.3 16.82C701.127 17.5133 701.553 18.48 701.58 19.72H699.32C699.32 19.3867 699.227 19.0667 699.04 18.76C698.853 18.44 698.587 18.18 698.24 17.98C697.893 17.7667 697.467 17.66 696.96 17.66C696.333 17.6467 695.807 17.8 695.38 18.12C694.953 18.4267 694.74 18.8467 694.74 19.38C694.74 20.0333 695 20.5467 695.52 20.92C696.04 21.28 696.887 21.6533 698.06 22.04C698.793 22.28 699.44 22.5733 700 22.92C700.573 23.2533 701.02 23.6867 701.34 24.22C701.673 24.74 701.84 25.4067 701.84 26.22C701.84 26.9667 701.653 27.6467 701.28 28.26C700.907 28.86 700.367 29.34 699.66 29.7C698.967 30.06 698.127 30.24 697.14 30.24ZM708.412 30V16H713.152C714.219 16 715.099 16.1867 715.792 16.56C716.486 16.92 716.999 17.42 717.332 18.06C717.666 18.7 717.832 19.4333 717.832 20.26C717.832 21.0867 717.666 21.82 717.332 22.46C716.999 23.1 716.486 23.6067 715.792 23.98C715.099 24.34 714.219 24.52 713.152 24.52H710.532V30H708.412ZM710.532 22.62H713.052C713.959 22.62 714.619 22.4067 715.032 21.98C715.459 21.5533 715.672 20.98 715.672 20.26C715.672 19.5533 715.459 18.9867 715.032 18.56C714.619 18.12 713.959 17.9 713.052 17.9H710.532V22.62ZM728.984 30.24C727.851 30.24 726.871 29.9467 726.044 29.36C725.218 28.7733 724.584 27.94 724.144 26.86C723.704 25.78 723.484 24.4933 723.484 23C723.484 21.5067 723.704 20.22 724.144 19.14C724.584 18.06 725.218 17.2267 726.044 16.64C726.871 16.0533 727.851 15.76 728.984 15.76C730.131 15.76 731.111 16.0533 731.924 16.64C732.751 17.2267 733.384 18.06 733.824 19.14C734.264 20.22 734.484 21.5067 734.484 23C734.484 24.4933 734.264 25.78 733.824 26.86C733.384 27.94 732.751 28.7733 731.924 29.36C731.111 29.9467 730.131 30.24 728.984 30.24ZM728.984 28.24C729.984 28.24 730.791 27.7933 731.404 26.9C732.018 25.9933 732.324 24.6933 732.324 23C732.324 21.3067 732.018 20.0133 731.404 19.12C730.791 18.2133 729.984 17.76 728.984 17.76C727.971 17.76 727.158 18.2133 726.544 19.12C725.944 20.0133 725.644 21.3067 725.644 23C725.644 24.6933 725.944 25.9933 726.544 26.9C727.158 27.7933 727.971 28.24 728.984 28.24ZM743.917 30V17.9H740.157V16H749.797V17.9H746.037V30H743.917ZM761.109 30.24C760.122 30.24 759.255 30.06 758.509 29.7C757.775 29.34 757.195 28.8267 756.769 28.16C756.355 27.4933 756.142 26.7 756.129 25.78H758.369C758.382 26.4867 758.622 27.0933 759.089 27.6C759.569 28.0933 760.235 28.34 761.089 28.34C761.875 28.34 762.489 28.16 762.929 27.8C763.369 27.4267 763.589 26.9467 763.589 26.36C763.589 25.8667 763.455 25.46 763.189 25.14C762.935 24.8067 762.535 24.5133 761.989 24.26C761.442 23.9933 760.735 23.72 759.869 23.44C758.709 23.0667 757.855 22.5533 757.309 21.9C756.762 21.2333 756.489 20.42 756.489 19.46C756.489 18.3533 756.889 17.46 757.689 16.78C758.489 16.1 759.589 15.76 760.989 15.76C762.349 15.76 763.442 16.1133 764.269 16.82C765.095 17.5133 765.522 18.48 765.549 19.72H763.289C763.289 19.3867 763.195 19.0667 763.009 18.76C762.822 18.44 762.555 18.18 762.209 17.98C761.862 17.7667 761.435 17.66 760.929 17.66C760.302 17.6467 759.775 17.8 759.349 18.12C758.922 18.4267 758.709 18.8467 758.709 19.38C758.709 20.0333 758.969 20.5467 759.489 20.92C760.009 21.28 760.855 21.6533 762.029 22.04C762.762 22.28 763.409 22.5733 763.969 22.92C764.542 23.2533 764.989 23.6867 765.309 24.22C765.642 24.74 765.809 25.4067 765.809 26.22C765.809 26.9667 765.622 27.6467 765.249 28.26C764.875 28.86 764.335 29.34 763.629 29.7C762.935 30.06 762.095 30.24 761.109 30.24Z" fill="#212121"/>
<path d="M694.54 29.7L694.452 29.8795L694.453 29.8802L694.54 29.7ZM692.8 28.16L692.63 28.2654L692.632 28.2678L692.8 28.16ZM692.16 25.78V25.58H691.957L691.96 25.7829L692.16 25.78ZM694.4 25.78L694.6 25.7762L694.596 25.58H694.4V25.78ZM695.12 27.6L694.973 27.7355L694.977 27.7395L695.12 27.6ZM698.96 27.8L699.087 27.9548L699.089 27.9525L698.96 27.8ZM699.22 25.14L699.061 25.2611L699.066 25.268L699.22 25.14ZM698.02 24.26L697.932 24.4398L697.936 24.4415L698.02 24.26ZM695.9 23.44L695.961 23.2497L695.961 23.2496L695.9 23.44ZM693.34 21.9L693.185 22.0268L693.187 22.0283L693.34 21.9ZM700.3 16.82L700.17 16.972L700.171 16.9732L700.3 16.82ZM701.58 19.72V19.92H701.784L701.78 19.7157L701.58 19.72ZM699.32 19.72H699.12V19.92H699.32V19.72ZM699.04 18.76L698.867 18.8608L698.869 18.864L699.04 18.76ZM698.24 17.98L698.135 18.1504L698.14 18.1532L698.24 17.98ZM696.96 17.66L696.956 17.86H696.96V17.66ZM695.38 18.12L695.497 18.2824L695.5 18.28L695.38 18.12ZM695.52 20.92L695.403 21.0825L695.406 21.0844L695.52 20.92ZM698.06 22.04L697.997 22.23L697.998 22.2301L698.06 22.04ZM700 22.92L699.895 23.0901L699.899 23.0929L700 22.92ZM701.34 24.22L701.168 24.3229L701.172 24.3279L701.34 24.22ZM701.28 28.26L701.45 28.3657L701.451 28.364L701.28 28.26ZM699.66 29.7L699.569 29.5218L699.568 29.5225L699.66 29.7ZM697.14 30.24V30.04C696.178 30.04 695.342 29.8645 694.627 29.5198L694.54 29.7L694.453 29.8802C695.232 30.2555 696.129 30.44 697.14 30.44V30.24ZM694.54 29.7L694.628 29.5205C693.927 29.176 693.375 28.687 692.968 28.0522L692.8 28.16L692.632 28.2678C693.079 28.9663 693.687 29.504 694.452 29.8795L694.54 29.7ZM692.8 28.16L692.97 28.0546C692.579 27.4237 692.373 26.6672 692.36 25.7771L692.16 25.78L691.96 25.7829C691.974 26.7328 692.194 27.5629 692.63 28.2654L692.8 28.16ZM692.16 25.78V25.98H694.4V25.78V25.58H692.16V25.78ZM694.4 25.78L694.2 25.7838C694.214 26.5379 694.472 27.1918 694.973 27.7355L695.12 27.6L695.267 27.4645C694.835 26.9948 694.612 26.4354 694.6 25.7762L694.4 25.78ZM695.12 27.6L694.977 27.7395C695.503 28.2804 696.226 28.54 697.12 28.54V28.34V28.14C696.307 28.14 695.697 27.9063 695.263 27.4605L695.12 27.6ZM697.12 28.34V28.54C697.935 28.54 698.599 28.3535 699.087 27.9548L698.96 27.8L698.833 27.6452C698.441 27.9665 697.878 28.14 697.12 28.14V28.34ZM698.96 27.8L699.089 27.9525C699.575 27.5404 699.82 27.0043 699.82 26.36H699.62H699.42C699.42 26.8891 699.225 27.3129 698.831 27.6475L698.96 27.8ZM699.62 26.36H699.82C699.82 25.8289 699.676 25.3743 699.374 25.012L699.22 25.14L699.066 25.268C699.298 25.5457 699.42 25.9044 699.42 26.36H699.62ZM699.22 25.14L699.379 25.019C699.099 24.6508 698.668 24.34 698.104 24.0785L698.02 24.26L697.936 24.4415C698.465 24.6867 698.834 24.9626 699.061 25.261L699.22 25.14ZM698.02 24.26L698.108 24.0802C697.549 23.808 696.833 23.5313 695.961 23.2497L695.9 23.44L695.839 23.6303C696.7 23.9087 697.397 24.1787 697.932 24.4398L698.02 24.26ZM695.9 23.44L695.961 23.2496C694.823 22.8831 694.008 22.3861 693.493 21.7717L693.34 21.9L693.187 22.0283C693.766 22.7206 694.657 23.2502 695.839 23.6304L695.9 23.44ZM693.34 21.9L693.495 21.7732C692.981 21.1464 692.72 20.3793 692.72 19.46H692.52H692.32C692.32 20.4607 692.606 21.3203 693.185 22.0268L693.34 21.9ZM692.52 19.46H692.72C692.72 18.4084 693.097 17.5721 693.85 16.9324L693.72 16.78L693.59 16.6276C692.743 17.3479 692.32 18.2983 692.32 19.46H692.52ZM693.72 16.78L693.85 16.9324C694.603 16.2921 695.651 15.96 697.02 15.96V15.76V15.56C695.589 15.56 694.437 15.9079 693.59 16.6276L693.72 16.78ZM697.02 15.76V15.96C698.345 15.96 699.388 16.3035 700.17 16.972L700.3 16.82L700.43 16.668C699.559 15.9232 698.415 15.56 697.02 15.56V15.76ZM700.3 16.82L700.171 16.9732C700.947 17.6238 701.354 18.5324 701.38 19.7243L701.58 19.72L701.78 19.7157C701.752 18.4276 701.306 17.4029 700.429 16.6668L700.3 16.82ZM701.58 19.72V19.52H699.32V19.72V19.92H701.58V19.72ZM699.32 19.72H699.52C699.52 19.3472 699.415 18.9915 699.211 18.656L699.04 18.76L698.869 18.864C699.038 19.1418 699.12 19.4262 699.12 19.72H699.32ZM699.04 18.76L699.213 18.6592C699.007 18.3067 698.714 18.0227 698.34 17.8068L698.24 17.98L698.14 18.1532C698.459 18.3373 698.7 18.5733 698.867 18.8608L699.04 18.76ZM698.24 17.98L698.345 17.8097C697.96 17.5727 697.495 17.46 696.96 17.46V17.66V17.86C697.439 17.86 697.827 17.9606 698.135 18.1503L698.24 17.98ZM696.96 17.66L696.964 17.46C696.301 17.4459 695.728 17.6086 695.26 17.96L695.38 18.12L695.5 18.28C695.885 17.9914 696.366 17.8474 696.956 17.86L696.96 17.66ZM695.38 18.12L695.263 17.9576C694.783 18.3025 694.54 18.7834 694.54 19.38H694.74H694.94C694.94 18.9099 695.123 18.5508 695.497 18.2824L695.38 18.12ZM694.74 19.38H694.54C694.54 20.0962 694.83 20.6707 695.403 21.0825L695.52 20.92L695.637 20.7575C695.17 20.4227 694.94 19.9705 694.94 19.38H694.74ZM695.52 20.92L695.406 21.0844C695.951 21.4614 696.82 21.8418 697.997 22.23L698.06 22.04L698.123 21.85C696.954 21.4648 696.129 21.0986 695.634 20.7556L695.52 20.92ZM698.06 22.04L697.998 22.2301C698.719 22.466 699.35 22.753 699.895 23.0901L700 22.92L700.105 22.7499C699.53 22.3936 698.868 22.094 698.122 21.8499L698.06 22.04ZM700 22.92L699.899 23.0929C700.446 23.4104 700.867 23.8204 701.169 24.3229L701.34 24.22L701.511 24.1171C701.173 23.5529 700.701 23.0962 700.101 22.7471L700 22.92ZM701.34 24.22L701.172 24.3279C701.479 24.807 701.64 25.433 701.64 26.22H701.84H702.04C702.04 25.3803 701.868 24.673 701.508 24.1121L701.34 24.22ZM701.84 26.22H701.64C701.64 26.9315 701.463 27.5753 701.109 28.156L701.28 28.26L701.451 28.364C701.844 27.718 702.04 27.0018 702.04 26.22H701.84ZM701.28 28.26L701.11 28.1543C700.758 28.7198 700.247 29.1763 699.569 29.5218L699.66 29.7L699.751 29.8782C700.486 29.5037 701.055 29.0002 701.45 28.3657L701.28 28.26ZM699.66 29.7L699.568 29.5225C698.909 29.8643 698.103 30.04 697.14 30.04V30.24V30.44C698.151 30.44 699.024 30.2557 699.752 29.8775L699.66 29.7ZM708.412 30H708.212V30.2H708.412V30ZM708.412 16V15.8H708.212V16H708.412ZM715.792 16.56L715.697 16.7361L715.7 16.7375L715.792 16.56ZM717.332 18.06L717.155 18.1524L717.332 18.06ZM717.332 22.46L717.155 22.3676L717.332 22.46ZM715.792 23.98L715.884 24.1575L715.887 24.1561L715.792 23.98ZM710.532 24.52V24.32H710.332V24.52H710.532ZM710.532 30V30.2H710.732V30H710.532ZM710.532 22.62H710.332V22.82H710.532V22.62ZM715.032 21.98L714.891 21.8386L714.889 21.8408L715.032 21.98ZM715.032 18.56L714.886 18.697L714.891 18.7014L715.032 18.56ZM710.532 17.9V17.7H710.332V17.9H710.532ZM708.412 30H708.612V16H708.412H708.212V30H708.412ZM708.412 16V16.2H713.152V16V15.8H708.412V16ZM713.152 16V16.2C714.197 16.2 715.042 16.383 715.697 16.7361L715.792 16.56L715.887 16.3839C715.156 15.9903 714.241 15.8 713.152 15.8V16ZM715.792 16.56L715.7 16.7375C716.36 17.0802 716.842 17.5519 717.155 18.1524L717.332 18.06L717.51 17.9676C717.156 17.2881 716.611 16.7598 715.884 16.3825L715.792 16.56ZM717.332 18.06L717.155 18.1524C717.471 18.76 717.632 19.4608 717.632 20.26H717.832H718.032C718.032 19.4059 717.86 18.64 717.51 17.9676L717.332 18.06ZM717.832 20.26H717.632C717.632 21.0592 717.471 21.76 717.155 22.3676L717.332 22.46L717.51 22.5524C717.86 21.88 718.032 21.1141 718.032 20.26H717.832ZM717.332 22.46L717.155 22.3676C716.842 22.9688 716.359 23.4478 715.697 23.8039L715.792 23.98L715.887 24.1561C716.612 23.7656 717.156 23.2312 717.51 22.5524L717.332 22.46ZM715.792 23.98L715.7 23.8025C715.044 24.1433 714.198 24.32 713.152 24.32V24.52V24.72C714.24 24.72 715.154 24.5367 715.884 24.1575L715.792 23.98ZM713.152 24.52V24.32H710.532V24.52V24.72H713.152V24.52ZM710.532 24.52H710.332V30H710.532H710.732V24.52H710.532ZM710.532 30V29.8H708.412V30V30.2H710.532V30ZM710.532 22.62V22.82H713.052V22.62V22.42H710.532V22.62ZM713.052 22.62V22.82C713.985 22.82 714.709 22.6011 715.176 22.1192L715.032 21.98L714.889 21.8408C714.529 22.2122 713.933 22.42 713.052 22.42V22.62ZM715.032 21.98L715.174 22.1214C715.645 21.6501 715.872 21.0221 715.872 20.26H715.672H715.472C715.472 20.9379 715.273 21.4565 714.891 21.8386L715.032 21.98ZM715.672 20.26H715.872C715.872 19.5101 715.644 18.8892 715.174 18.4186L715.032 18.56L714.891 18.7014C715.274 19.0842 715.472 19.5966 715.472 20.26H715.672ZM715.032 18.56L715.178 18.4231C714.711 17.9263 713.986 17.7 713.052 17.7V17.9V18.1C713.931 18.1 714.526 18.3137 714.886 18.6969L715.032 18.56ZM713.052 17.9V17.7H710.532V17.9V18.1H713.052V17.9ZM710.532 17.9H710.332V22.62H710.532H710.732V17.9H710.532ZM726.044 29.36L726.16 29.1969L726.044 29.36ZM724.144 26.86L723.959 26.9355L724.144 26.86ZM724.144 19.14L723.959 19.0645L724.144 19.14ZM726.044 16.64L725.929 16.4769L726.044 16.64ZM731.924 16.64L731.807 16.8022L731.809 16.8031L731.924 16.64ZM733.824 19.14L734.01 19.0645L733.824 19.14ZM733.824 26.86L734.01 26.9355L733.824 26.86ZM731.924 29.36L731.809 29.1969L731.807 29.1978L731.924 29.36ZM731.404 26.9L731.569 27.0132L731.57 27.0121L731.404 26.9ZM731.404 19.12L731.239 19.2321L731.239 19.2332L731.404 19.12ZM726.544 19.12L726.379 19.0079L726.378 19.0085L726.544 19.12ZM726.544 26.9L726.378 27.0104L726.379 27.0132L726.544 26.9ZM728.984 30.24V30.04C727.887 30.04 726.949 29.7568 726.16 29.1969L726.044 29.36L725.929 29.5231C726.793 30.1366 727.815 30.44 728.984 30.44V30.24ZM726.044 29.36L726.16 29.1969C725.369 28.6354 724.757 27.8347 724.33 26.7845L724.144 26.86L723.959 26.9355C724.411 28.0453 725.066 28.9113 725.929 29.5231L726.044 29.36ZM724.144 26.86L724.33 26.7845C723.902 25.7342 723.684 24.4744 723.684 23H723.484H723.284C723.284 24.5123 723.507 25.8258 723.959 26.9355L724.144 26.86ZM723.484 23H723.684C723.684 21.5256 723.902 20.2658 724.33 19.2155L724.144 19.14L723.959 19.0645C723.507 20.1742 723.284 21.4877 723.284 23H723.484ZM724.144 19.14L724.33 19.2155C724.757 18.1653 725.369 17.3646 726.16 16.8031L726.044 16.64L725.929 16.4769C725.066 17.0887 724.411 17.9547 723.959 19.0645L724.144 19.14ZM726.044 16.64L726.16 16.8031C726.949 16.2432 727.887 15.96 728.984 15.96V15.76V15.56C727.815 15.56 726.793 15.8634 725.929 16.4769L726.044 16.64ZM728.984 15.76V15.96C730.095 15.96 731.033 16.2435 731.807 16.8022L731.924 16.64L732.041 16.4778C731.189 15.8631 730.167 15.56 728.984 15.56V15.76ZM731.924 16.64L731.809 16.8031C732.6 17.3646 733.211 18.1653 733.639 19.2155L733.824 19.14L734.01 19.0645C733.557 17.9547 732.902 17.0887 732.04 16.4769L731.924 16.64ZM733.824 19.14L733.639 19.2155C734.067 20.2658 734.284 21.5256 734.284 23H734.484H734.684C734.684 21.4877 734.462 20.1742 734.01 19.0645L733.824 19.14ZM734.484 23H734.284C734.284 24.4744 734.067 25.7342 733.639 26.7845L733.824 26.86L734.01 26.9355C734.462 25.8258 734.684 24.5123 734.684 23H734.484ZM733.824 26.86L733.639 26.7845C733.211 27.8347 732.6 28.6354 731.809 29.1969L731.924 29.36L732.04 29.5231C732.902 28.9113 733.557 28.0453 734.01 26.9355L733.824 26.86ZM731.924 29.36L731.807 29.1978C731.033 29.7565 730.095 30.04 728.984 30.04V30.24V30.44C730.167 30.44 731.189 30.1369 732.041 29.5222L731.924 29.36ZM728.984 28.24V28.44C730.057 28.44 730.922 27.9555 731.569 27.0132L731.404 26.9L731.239 26.7868C730.66 27.6312 729.912 28.04 728.984 28.04V28.24ZM731.404 26.9L731.57 27.0121C732.215 26.0588 732.524 24.713 732.524 23H732.324H732.124C732.124 24.6737 731.821 25.9279 731.239 26.7879L731.404 26.9ZM732.324 23H732.524C732.524 21.2873 732.215 19.9474 731.569 19.0068L731.404 19.12L731.239 19.2332C731.82 20.0793 732.124 21.326 732.124 23H732.324ZM731.404 19.12L731.57 19.0079C730.924 18.0524 730.058 17.56 728.984 17.56V17.76V17.96C729.911 17.96 730.658 18.3743 731.239 19.2321L731.404 19.12ZM728.984 17.76V17.56C727.899 17.56 727.026 18.0515 726.379 19.0079L726.544 19.12L726.71 19.2321C727.29 18.3752 728.043 17.96 728.984 17.96V17.76ZM726.544 19.12L726.378 19.0085C725.747 19.9487 725.444 21.2879 725.444 23H725.644H725.844C725.844 21.3254 726.142 20.0779 726.71 19.2315L726.544 19.12ZM725.644 23H725.444C725.444 24.7124 725.747 26.0574 726.378 27.0104L726.544 26.9L726.711 26.7896C726.142 25.9292 725.844 24.6743 725.844 23H725.644ZM726.544 26.9L726.379 27.0132C727.027 27.9564 727.9 28.44 728.984 28.44V28.24V28.04C728.042 28.04 727.288 27.6303 726.709 26.7868L726.544 26.9ZM743.917 30H743.717V30.2H743.917V30ZM743.917 17.9H744.117V17.7H743.917V17.9ZM740.157 17.9H739.957V18.1H740.157V17.9ZM740.157 16V15.8H739.957V16H740.157ZM749.797 16H749.997V15.8H749.797V16ZM749.797 17.9V18.1H749.997V17.9H749.797ZM746.037 17.9V17.7H745.837V17.9H746.037ZM746.037 30V30.2H746.237V30H746.037ZM743.917 30H744.117V17.9H743.917H743.717V30H743.917ZM743.917 17.9V17.7H740.157V17.9V18.1H743.917V17.9ZM740.157 17.9H740.357V16H740.157H739.957V17.9H740.157ZM740.157 16V16.2H749.797V16V15.8H740.157V16ZM749.797 16H749.597V17.9H749.797H749.997V16H749.797ZM749.797 17.9V17.7H746.037V17.9V18.1H749.797V17.9ZM746.037 17.9H745.837V30H746.037H746.237V17.9H746.037ZM746.037 30V29.8H743.917V30V30.2H746.037V30ZM758.509 29.7L758.421 29.8795L758.422 29.8802L758.509 29.7ZM756.769 28.16L756.599 28.2654L756.6 28.2678L756.769 28.16ZM756.129 25.78V25.58H755.926L755.929 25.7829L756.129 25.78ZM758.369 25.78L758.569 25.7762L758.565 25.58H758.369V25.78ZM759.089 27.6L758.942 27.7355L758.945 27.7395L759.089 27.6ZM762.929 27.8L763.055 27.9548L763.058 27.9525L762.929 27.8ZM763.189 25.14L763.029 25.2611L763.035 25.268L763.189 25.14ZM761.989 24.26L761.901 24.4398L761.905 24.4415L761.989 24.26ZM759.869 23.44L759.93 23.2497L759.93 23.2496L759.869 23.44ZM757.309 21.9L757.154 22.0268L757.155 22.0283L757.309 21.9ZM764.269 16.82L764.139 16.972L764.14 16.9732L764.269 16.82ZM765.549 19.72V19.92H765.753L765.749 19.7157L765.549 19.72ZM763.289 19.72H763.089V19.92H763.289V19.72ZM763.009 18.76L762.836 18.8608L762.838 18.864L763.009 18.76ZM762.209 17.98L762.104 18.1504L762.109 18.1532L762.209 17.98ZM760.929 17.66L760.924 17.86H760.929V17.66ZM759.349 18.12L759.465 18.2824L759.469 18.28L759.349 18.12ZM759.489 20.92L759.372 21.0825L759.375 21.0844L759.489 20.92ZM762.029 22.04L761.966 22.23L761.967 22.2301L762.029 22.04ZM763.969 22.92L763.863 23.0901L763.868 23.0929L763.969 22.92ZM765.309 24.22L765.137 24.3229L765.14 24.3279L765.309 24.22ZM765.249 28.26L765.419 28.3657L765.42 28.364L765.249 28.26ZM763.629 29.7L763.538 29.5218L763.537 29.5225L763.629 29.7ZM761.109 30.24V30.04C760.146 30.04 759.311 29.8645 758.596 29.5198L758.509 29.7L758.422 29.8802C759.2 30.2555 760.098 30.44 761.109 30.44V30.24ZM758.509 29.7L758.597 29.5205C757.895 29.176 757.344 28.687 756.937 28.0522L756.769 28.16L756.6 28.2678C757.047 28.9663 757.656 29.504 758.421 29.8795L758.509 29.7ZM756.769 28.16L756.939 28.0546C756.548 27.4237 756.342 26.6672 756.329 25.7771L756.129 25.78L755.929 25.7829C755.943 26.7328 756.163 27.5629 756.599 28.2654L756.769 28.16ZM756.129 25.78V25.98H758.369V25.78V25.58H756.129V25.78ZM758.369 25.78L758.169 25.7838C758.183 26.5379 758.441 27.1918 758.942 27.7355L759.089 27.6L759.236 27.4645C758.803 26.9948 758.581 26.4354 758.569 25.7762L758.369 25.78ZM759.089 27.6L758.945 27.7395C759.472 28.2804 760.195 28.54 761.089 28.54V28.34V28.14C760.276 28.14 759.666 27.9063 759.232 27.4605L759.089 27.6ZM761.089 28.34V28.54C761.904 28.54 762.568 28.3535 763.055 27.9548L762.929 27.8L762.802 27.6452C762.409 27.9665 761.847 28.14 761.089 28.14V28.34ZM762.929 27.8L763.058 27.9525C763.544 27.5404 763.789 27.0043 763.789 26.36H763.589H763.389C763.389 26.8891 763.194 27.3129 762.799 27.6475L762.929 27.8ZM763.589 26.36H763.789C763.789 25.8289 763.644 25.3743 763.342 25.012L763.189 25.14L763.035 25.268C763.267 25.5457 763.389 25.9044 763.389 26.36H763.589ZM763.189 25.14L763.348 25.019C763.068 24.6508 762.637 24.34 762.073 24.0785L761.989 24.26L761.905 24.4415C762.434 24.6867 762.803 24.9626 763.03 25.261L763.189 25.14ZM761.989 24.26L762.076 24.0802C761.518 23.808 760.802 23.5313 759.93 23.2497L759.869 23.44L759.807 23.6303C760.669 23.9087 761.366 24.1787 761.901 24.4398L761.989 24.26ZM759.869 23.44L759.93 23.2496C758.791 22.8831 757.976 22.3861 757.462 21.7717L757.309 21.9L757.155 22.0283C757.735 22.7206 758.626 23.2502 759.807 23.6304L759.869 23.44ZM757.309 21.9L757.463 21.7732C756.949 21.1464 756.689 20.3793 756.689 19.46H756.489H756.289C756.289 20.4607 756.575 21.3203 757.154 22.0268L757.309 21.9ZM756.489 19.46H756.689C756.689 18.4084 757.066 17.5721 757.818 16.9324L757.689 16.78L757.559 16.6276C756.712 17.3479 756.289 18.2983 756.289 19.46H756.489ZM757.689 16.78L757.818 16.9324C758.572 16.2921 759.62 15.96 760.989 15.96V15.76V15.56C759.557 15.56 758.406 15.9079 757.559 16.6276L757.689 16.78ZM760.989 15.76V15.96C762.313 15.96 763.357 16.3035 764.139 16.972L764.269 16.82L764.399 16.668C763.527 15.9232 762.384 15.56 760.989 15.56V15.76ZM764.269 16.82L764.14 16.9732C764.916 17.6238 765.323 18.5324 765.349 19.7243L765.549 19.72L765.749 19.7157C765.721 18.4276 765.275 17.4029 764.397 16.6668L764.269 16.82ZM765.549 19.72V19.52H763.289V19.72V19.92H765.549V19.72ZM763.289 19.72H763.489C763.489 19.3472 763.384 18.9915 763.18 18.656L763.009 18.76L762.838 18.864C763.007 19.1418 763.089 19.4262 763.089 19.72H763.289ZM763.009 18.76L763.182 18.6592C762.976 18.3067 762.683 18.0227 762.309 17.8068L762.209 17.98L762.109 18.1532C762.428 18.3373 762.668 18.5733 762.836 18.8608L763.009 18.76ZM762.209 17.98L762.314 17.8097C761.928 17.5727 761.463 17.46 760.929 17.46V17.66V17.86C761.407 17.86 761.796 17.9606 762.104 18.1503L762.209 17.98ZM760.929 17.66L760.933 17.46C760.27 17.4459 759.697 17.6086 759.229 17.96L759.349 18.12L759.469 18.28C759.854 17.9914 760.334 17.8474 760.924 17.86L760.929 17.66ZM759.349 18.12L759.232 17.9576C758.752 18.3025 758.509 18.7834 758.509 19.38H758.709H758.909C758.909 18.9099 759.092 18.5508 759.465 18.2824L759.349 18.12ZM758.709 19.38H758.509C758.509 20.0962 758.799 20.6707 759.372 21.0825L759.489 20.92L759.605 20.7575C759.139 20.4227 758.909 19.9705 758.909 19.38H758.709ZM759.489 20.92L759.375 21.0844C759.919 21.4614 760.788 21.8418 761.966 22.23L762.029 22.04L762.091 21.85C760.922 21.4648 760.098 21.0986 759.603 20.7556L759.489 20.92ZM762.029 22.04L761.967 22.2301C762.687 22.466 763.319 22.753 763.863 23.0901L763.969 22.92L764.074 22.7499C763.498 22.3936 762.837 22.094 762.091 21.8499L762.029 22.04ZM763.969 22.92L763.868 23.0929C764.414 23.4104 764.836 23.8204 765.137 24.3229L765.309 24.22L765.48 24.1171C765.142 23.5529 764.67 23.0962 764.069 22.7471L763.969 22.92ZM765.309 24.22L765.14 24.3279C765.447 24.807 765.609 25.433 765.609 26.22H765.809H766.009C766.009 25.3803 765.837 24.673 765.477 24.1121L765.309 24.22ZM765.809 26.22H765.609C765.609 26.9315 765.431 27.5753 765.078 28.156L765.249 28.26L765.42 28.364C765.813 27.718 766.009 27.0018 766.009 26.22H765.809ZM765.249 28.26L765.079 28.1543C764.727 28.7198 764.216 29.1763 763.538 29.5218L763.629 29.7L763.72 29.8782C764.455 29.5037 765.024 29.0002 765.419 28.3657L765.249 28.26ZM763.629 29.7L763.537 29.5225C762.878 29.8643 762.072 30.04 761.109 30.04V30.24V30.44C762.119 30.44 762.993 30.2557 763.721 29.8775L763.629 29.7Z" fill="#212121" mask="url(#path-1-outside-1_2_70)"/>
<path d="M678 14L678 22" stroke="#212121" stroke-width="2.5"/>
<path d="M673 19L678 23L683 19" stroke="#212121" stroke-width="2.5" stroke-linejoin="bevel"/>
<circle cx="678" cy="28" r="2" fill="#212121"/>
</svg>
